<svg width="70" height="78" viewBox="0 0 70 78" fill="none" xmlns="http://www.w3.org/2000/svg">
<path d="M50.3547 48.118C50.3547 48.5968 50.1211 48.9515 49.7977 49.3061C49.636 49.5012 47.6057 51.0617 47.3362 51.2036C44.8746 52.64 43.9224 50.6539 41.928 49.7672C40.8858 49.98 40.3648 51.0617 39.4484 51.4164C36.7893 52.4804 35.4417 49.6785 34.4535 49.7672C33.5012 49.9445 32.9981 50.8844 32.2614 51.2745C29.2788 52.7996 28.3984 49.6608 26.979 49.7672C25.7213 49.8736 25.1822 51.8775 22.9722 51.6647C21.9661 51.5937 18.4804 49.182 18.678 47.8697L18.8217 7.89905H50.229L50.3368 48.118H50.3547Z" stroke="#01224F" stroke-width="1.5" stroke-miterlimit="10"/>
<path d="M26.1155 14.6992L42.6425 14.6522C43.3559 14.6522 43.6949 15.1291 43.6101 15.7806C43.5183 16.3448 42.925 16.4523 42.4236 16.506C37.5714 17.0366 31.681 16.0963 26.7229 16.506C25.4375 16.4254 24.9007 15.3776 26.1226 14.6992H26.1155Z" fill="#01224F"/>
<path d="M43.6229 22.7354H25.4355V24.7562H43.6229V22.7354Z" fill="#01224F"/>
<path d="M26.1007 30.8713L42.6396 30.819L43.4033 31.1067C44.1316 32.5193 42.9083 32.5651 41.784 32.6174C37.7253 32.8266 30.8524 32.9901 26.9139 32.6174C25.5209 32.4866 24.8421 31.7868 26.0936 30.8647L26.1007 30.8713Z" fill="#01224F"/>
<path d="M26.4338 40.7817C26.0294 40.7584 25.6108 41.0612 25.4476 40.1837C25.3766 39.5624 25.6179 38.9955 26.221 38.9023L43.0231 38.9412C43.8816 39.2207 43.6759 40.7817 43.2856 40.7817C37.8008 40.7817 31.8619 41.1 26.4338 40.7817Z" fill="#01224F"/>
<path d="M59.787 9.60027C59.787 14.6259 55.7108 18.6939 50.6933 18.6939C45.6758 18.6939 41.5996 14.6178 41.5996 9.60027C41.5996 4.58278 45.6676 0.506592 50.6933 0.506592C55.719 0.506592 59.787 4.58278 59.787 9.60027Z" fill="white" stroke="#01224F" stroke-miterlimit="10"/>
<path d="M55.4664 4.9301C55.6484 5.13343 55.8235 5.65396 55.7114 5.96302L49.8718 12.616C48.9405 12.9006 46.4268 9.15123 45.6426 8.29725L46.0697 7.0366L46.987 6.73567L49.8928 9.64736L54.276 4.63731C54.6471 4.41771 55.1933 4.63731 55.4664 4.9301Z" fill="#01224F"/>
<g filter="url(#filter0_d_870_1867)">
<path d="M5 68.4362H65" stroke="#01224F" stroke-width="2" stroke-linecap="round"/>
</g>
<defs>
<filter id="filter0_d_870_1867" x="0" y="67.4362" width="70" height="10" filterUnits="userSpaceOnUse" color-interpolation-filters="sRGB">
<feFlood flood-opacity="0" result="BackgroundImageFix"/>
<feColorMatrix in="SourceAlpha" type="matrix" values="0 0 0 0 0 0 0 0 0 0 0 0 0 0 0 0 0 0 127 0" result="hardAlpha"/>
<feOffset dy="4"/>
<feGaussianBlur stdDeviation="2"/>
<feComposite in2="hardAlpha" operator="out"/>
<feColorMatrix type="matrix" values="0 0 0 0 0 0 0 0 0 0 0 0 0 0 0 0 0 0 0.25 0"/>
<feBlend mode="normal" in2="BackgroundImageFix" result="effect1_dropShadow_870_1867"/>
<feBlend mode="normal" in="SourceGraphic" in2="effect1_dropShadow_870_1867" result="shape"/>
</filter>
</defs>
</svg>
