<svg width="25" height="31" viewBox="0 0 25 31" fill="none" xmlns="http://www.w3.org/2000/svg">
<path d="M18.7008 27.4864C18.7008 27.7577 18.5685 27.9587 18.3852 28.1597C18.2936 28.2702 17.143 29.1545 16.9903 29.2349C15.5954 30.0489 15.0558 28.9234 13.9257 28.421C13.3351 28.5416 13.0399 29.1545 12.5206 29.3555C11.0137 29.9584 10.2501 28.3707 9.69011 28.421C9.15048 28.5215 8.8654 29.054 8.44795 29.2751C6.75781 30.1393 6.25891 28.3607 5.45457 28.421C4.74185 28.4813 4.43641 29.6168 3.18407 29.4962C2.6139 29.456 0.638673 28.0894 0.750671 27.3457L0.832124 4.69568H18.6295L18.6906 27.4864H18.7008Z" stroke="#01224F" stroke-width="1.5" stroke-miterlimit="10"/>
<path d="M4.96442 8.5491L14.3297 8.52246C14.734 8.52246 14.9261 8.79269 14.878 9.16189C14.826 9.4816 14.4898 9.5425 14.2057 9.57295C11.4561 9.87363 8.11821 9.34077 5.30861 9.57295C4.5802 9.52727 4.27603 8.93352 4.96842 8.5491H4.96442Z" fill="#01224F"/>
<path d="M14.8853 13.1029H4.5791V14.248H14.8853V13.1029Z" fill="#01224F"/>
<path d="M4.95602 17.7132L14.3281 17.6836L14.7608 17.8466C15.1735 18.6471 14.4803 18.673 13.8432 18.7027C11.5433 18.8213 7.64863 18.9139 5.41681 18.7027C4.62746 18.6286 4.2428 18.2321 4.95202 17.7095L4.95602 17.7132Z" fill="#01224F"/>
<path d="M5.1448 23.3291C4.91562 23.3159 4.67839 23.4875 4.58591 22.9903C4.54571 22.6382 4.68241 22.317 5.02418 22.2642L14.5454 22.2862C15.0319 22.4446 14.9153 23.3291 14.6941 23.3291C11.5861 23.3291 8.22069 23.5095 5.1448 23.3291Z" fill="#01224F"/>
<path d="M24.0464 5.65967C24.0464 8.50755 21.7366 10.8128 18.8933 10.8128C16.0501 10.8128 13.7402 8.50291 13.7402 5.65967C13.7402 2.81643 16.0454 0.506592 18.8933 0.506592C21.7412 0.506592 24.0464 2.81643 24.0464 5.65967Z" fill="white" stroke="#01224F" stroke-miterlimit="10"/>
<path d="M21.5981 3.01322C21.7012 3.12844 21.8004 3.42341 21.7369 3.59854L18.4278 7.36855C17.9001 7.52986 16.4756 5.4052 16.0312 4.92127L16.2733 4.20691L16.7931 4.03638L18.4397 5.68634L20.9235 2.8473C21.1338 2.72287 21.4433 2.8473 21.5981 3.01322Z" fill="#01224F"/>
</svg>
