<svg width="28" height="33" viewBox="0 0 28 33" fill="none" xmlns="http://www.w3.org/2000/svg">
<path d="M14.9096 4.31326C15.5631 4.44429 16.1621 4.71729 16.761 4.99029C13.1236 9.07434 15.5304 15.7464 20.9322 16.5108L20.9649 18.5747C22.9688 19.6557 24.6677 21.392 25.2994 23.6197C25.7023 25.0283 26.029 27.1031 24.1014 27.398H2.26552C0.577461 27.0376 0.70815 25.5634 0.980417 24.1875C1.4705 21.7305 3.27836 19.7322 5.48917 18.6839V11.2037C5.78322 7.87315 8.2663 5.04489 11.5117 4.30234C10.7276 3.1885 11.185 1.39764 12.5028 0.939C14.5285 0.229205 16.0532 2.60975 14.9096 4.30234V4.31326Z" fill="#F0F5F7"/>
<path d="M9.38793 28.7522H17.0005C18.0569 28.9597 17.2728 29.9752 16.8698 30.4666C14.866 32.869 11.1522 32.7052 9.33348 30.1827C8.98497 29.6913 8.52756 28.9815 9.38793 28.7522Z" fill="#F0F5F7"/>
</svg>
