<svg width="26" height="27" viewBox="0 0 26 27" fill="none" xmlns="http://www.w3.org/2000/svg">
<path d="M5.0324 12.3304H20.3997M5.0324 14.7273H20.3997M5.0324 17.2142H20.3997M24.593 18.2663C24.1778 20.168 23.3712 22.0135 22.3688 23.5776C22.1316 23.9546 21.8706 24.3203 21.5741 24.6579C21.3843 24.8773 20.2159 26.1377 19.8719 25.907C19.8244 25.8732 19.8066 25.8113 19.8007 25.7551C19.7829 25.5019 19.9193 25.3837 20.0142 25.1812C20.115 24.9617 20.1328 24.6748 20.1565 24.4385C20.1981 23.949 20.1625 23.4257 19.943 22.9756C19.7948 22.6774 19.6168 22.3905 19.3559 22.1767C18.2052 21.2089 16.4912 21.4283 15.0737 21.4452C14.0298 21.4565 12.98 21.434 11.9361 21.4283C10.7855 21.4227 9.63489 21.4002 8.48427 21.3383C7.71323 21.2989 6.91254 21.2708 6.1593 21.0851C-0.975736 19.3353 -0.536839 8.95455 7.0371 7.89116C7.50565 7.82364 9.97296 7.80676 10.1034 7.73362C10.1568 7.70549 10.2102 7.3904 10.3288 7.261C10.8626 6.65334 11.4439 6.35514 12.2505 6.1751C12.3276 4.68409 12.2386 5.93316 12.3157 4.4309C11.3193 3.8345 10.6847 2.70359 11.4439 1.68521C13.1342 -0.582246 16.4674 2.87238 13.496 4.37464C13.5434 5.89377 13.5494 4.65596 13.5375 6.18072C14.5636 6.39453 15.3643 6.90091 15.7913 7.82364C17.9443 7.69423 20.1447 7.87428 21.9121 9.1571C23.4246 10.2599 24.3498 11.9422 24.7057 13.6976C25.0022 15.1774 24.931 16.7415 24.5989 18.2775L24.593 18.2663Z" stroke="#01224F" stroke-width="1.2" stroke-miterlimit="10" stroke-linecap="round"/>
</svg>
